<?xml version="1.0" encoding="UTF-8"?>
<svg id="Layer_1" xmlns="http://www.w3.org/2000/svg" version="1.1" xmlns:xlink="http://www.w3.org/1999/xlink" viewBox="0 0 1187.4 1141">
  <!-- Generator: Adobe Illustrator 29.0.0, SVG Export Plug-In . SVG Version: 2.1.0 Build 186)  -->
  <defs>
    <style>
      .st0 {
        clip-path: url(#clippath-6);
      }

      .st1 {
        clip-path: url(#clippath-7);
      }

      .st2 {
        fill: #486960;
      }

      .st3 {
        clip-path: url(#clippath-4);
      }

      .st4 {
        fill: #fff;
      }

      .st5, .st6 {
        fill: none;
      }

      .st7 {
        clip-path: url(#clippath-1);
      }

      .st8 {
        clip-path: url(#clippath-5);
      }

      .st9 {
        clip-path: url(#clippath-3);
      }

      .st6 {
        stroke: #8a785c;
        stroke-miterlimit: 10;
        stroke-width: 50px;
      }

      .st10 {
        clip-path: url(#clippath-2);
      }

      .st11 {
        clip-path: url(#clippath);
      }
    </style>
    <clipPath id="clippath">
      <rect class="st5" x="362.9" y="696.5" width="254.5" height="324"/>
    </clipPath>
    <clipPath id="clippath-1">
      <rect class="st5" x="628.1" y="696.5" width="254.5" height="324"/>
    </clipPath>
    <clipPath id="clippath-2">
      <rect class="st5" x="361.2" y="457.6" width="184.4" height="230.2"/>
    </clipPath>
    <clipPath id="clippath-3">
      <rect class="st5" x="701.1" y="457.6" width="184.4" height="230.2"/>
    </clipPath>
    <clipPath id="clippath-4">
      <rect class="st5" x="502.9" y="162.7" width="106" height="175.6"/>
    </clipPath>
    <clipPath id="clippath-5">
      <rect class="st5" x="635.5" y="162.5" width="106" height="175.6" transform="translate(-1 2.6) rotate(-.2)"/>
    </clipPath>
    <clipPath id="clippath-6">
      <polygon class="st5" points="452.9 219.7 452.9 219.7 611.9 219.7 611.9 564.2 452.9 564.2 452.9 219.7"/>
    </clipPath>
    <clipPath id="clippath-7">
      <polygon class="st5" points="789 219.7 789 219.7 630 219.7 630 564.2 789 564.2 789 219.7"/>
    </clipPath>
  </defs>
  <g id="background">
    <circle class="st2" cx="622.4" cy="570.5" r="458"/>
  </g>
  <g id="border">
    <circle id="border-2" class="st6" cx="622.4" cy="570.5" r="500.5"/>
    <g id="pearls">
      <g>
        <circle class="st4" cx="616.3" cy="68.4" r="13"/>
        <circle class="st4" cx="647.9" cy="69" r="13"/>
        <circle class="st4" cx="679.3" cy="71.6" r="13"/>
        <circle class="st4" cx="710.5" cy="76.2" r="13"/>
        <circle class="st4" cx="741.4" cy="82.7" r="13"/>
        <circle class="st4" cx="771.8" cy="91.1" r="13"/>
        <circle class="st4" cx="801.6" cy="101.4" r="13"/>
        <circle class="st4" cx="830.7" cy="113.6" r="13"/>
        <circle class="st4" cx="859" cy="127.6" r="13"/>
        <circle class="st4" cx="886.3" cy="143.3" r="13"/>
        <circle class="st4" cx="912.6" cy="160.7" r="13"/>
        <circle class="st4" cx="937.8" cy="179.8" r="13"/>
        <circle class="st4" cx="961.7" cy="200.3" r="13"/>
        <circle class="st4" cx="984.3" cy="222.4" r="13"/>
        <circle class="st4" cx="1005.4" cy="245.8" r="13"/>
        <circle class="st4" cx="1025" cy="270.5" r="13"/>
        <circle class="st4" cx="1043.1" cy="296.4" r="13"/>
        <circle class="st4" cx="1059.5" cy="323.3" r="13"/>
        <circle class="st4" cx="1074.1" cy="351.2" r="13"/>
        <circle class="st4" cx="1087" cy="380" r="13"/>
        <circle class="st4" cx="1098.1" cy="409.6" r="13"/>
        <circle class="st4" cx="1107.2" cy="439.8" r="13"/>
        <circle class="st4" cx="1114.5" cy="470.5" r="13"/>
        <circle class="st4" cx="1119.8" cy="501.6" r="13"/>
        <circle class="st4" cx="1123.1" cy="532.9" r="13"/>
        <circle class="st4" cx="1124.5" cy="564.4" r="13"/>
        <circle class="st4" cx="1123.9" cy="596" r="13"/>
        <circle class="st4" cx="1121.3" cy="627.4" r="13"/>
        <circle class="st4" cx="1116.7" cy="658.6" r="13"/>
        <circle class="st4" cx="1110.2" cy="689.5" r="13"/>
        <circle class="st4" cx="1101.8" cy="719.9" r="13"/>
        <circle class="st4" cx="1091.5" cy="749.7" r="13"/>
        <circle class="st4" cx="1079.3" cy="778.8" r="13"/>
        <circle class="st4" cx="1065.3" cy="807.1" r="13"/>
        <circle class="st4" cx="1049.6" cy="834.4" r="13"/>
        <circle class="st4" cx="1032.2" cy="860.7" r="13"/>
        <circle class="st4" cx="1013.1" cy="885.9" r="13"/>
        <circle class="st4" cx="992.5" cy="909.8" r="13"/>
        <circle class="st4" cx="970.5" cy="932.4" r="13"/>
        <circle class="st4" cx="947.1" cy="953.5" r="13"/>
        <circle class="st4" cx="922.4" cy="973.2" r="13"/>
        <circle class="st4" cx="896.5" cy="991.2" r="13"/>
        <circle class="st4" cx="869.6" cy="1007.6" r="13"/>
        <circle class="st4" cx="841.7" cy="1022.2" r="13"/>
        <circle class="st4" cx="812.9" cy="1035.1" r="13"/>
        <circle class="st4" cx="783.3" cy="1046.2" r="13"/>
        <circle class="st4" cx="753.1" cy="1055.3" r="13"/>
        <circle class="st4" cx="722.4" cy="1062.6" r="13"/>
        <circle class="st4" cx="691.3" cy="1067.9" r="13"/>
        <circle class="st4" cx="660" cy="1071.2" r="13"/>
        <circle class="st4" cx="628.5" cy="1072.6" r="13"/>
        <circle class="st4" cx="596.9" cy="1072" r="13"/>
        <circle class="st4" cx="565.5" cy="1069.4" r="13"/>
        <circle class="st4" cx="534.3" cy="1064.8" r="13"/>
        <circle class="st4" cx="503.4" cy="1058.3" r="13"/>
        <circle class="st4" cx="473" cy="1049.9" r="13"/>
        <circle class="st4" cx="443.2" cy="1039.6" r="13"/>
        <circle class="st4" cx="414.1" cy="1027.4" r="13"/>
        <circle class="st4" cx="385.8" cy="1013.4" r="13"/>
        <circle class="st4" cx="358.5" cy="997.7" r="13"/>
        <circle class="st4" cx="332.2" cy="980.3" r="13"/>
        <circle class="st4" cx="307" cy="961.2" r="13"/>
        <circle class="st4" cx="283.1" cy="940.7" r="13"/>
        <circle class="st4" cx="260.5" cy="918.6" r="13"/>
        <circle class="st4" cx="239.4" cy="895.2" r="13"/>
        <circle class="st4" cx="219.7" cy="870.5" r="13"/>
        <circle class="st4" cx="201.7" cy="844.7" r="13"/>
        <circle class="st4" cx="185.3" cy="817.7" r="13"/>
        <circle class="st4" cx="170.7" cy="789.8" r="13"/>
        <circle class="st4" cx="157.8" cy="761" r="13"/>
        <circle class="st4" cx="146.7" cy="731.4" r="13"/>
        <circle class="st4" cx="137.6" cy="701.2" r="13"/>
        <circle class="st4" cx="130.3" cy="670.5" r="13"/>
        <circle class="st4" cx="125" cy="639.4" r="13"/>
        <circle class="st4" cx="121.7" cy="608.1" r="13"/>
        <circle class="st4" cx="120.3" cy="576.6" r="13"/>
        <circle class="st4" cx="120.9" cy="545" r="13"/>
        <circle class="st4" cx="123.5" cy="513.6" r="13"/>
        <circle class="st4" cx="128.1" cy="482.4" r="13"/>
        <circle class="st4" cx="134.6" cy="451.5" r="13"/>
        <circle class="st4" cx="143" cy="421.1" r="13"/>
        <circle class="st4" cx="153.3" cy="391.3" r="13"/>
        <circle class="st4" cx="165.5" cy="362.2" r="13"/>
        <circle class="st4" cx="179.5" cy="333.9" r="13"/>
        <circle class="st4" cx="195.2" cy="306.6" r="13"/>
        <circle class="st4" cx="212.6" cy="280.3" r="13"/>
        <circle class="st4" cx="231.6" cy="255.1" r="13"/>
        <circle class="st4" cx="252.2" cy="231.2" r="13" transform="translate(-16.4 443.1) rotate(-80.8)"/>
        <circle class="st4" cx="274.3" cy="208.6" r="13"/>
        <circle class="st4" cx="297.7" cy="187.5" r="13"/>
        <circle class="st4" cx="322.4" cy="167.9" r="13"/>
        <circle class="st4" cx="348.2" cy="149.8" r="13"/>
        <circle class="st4" cx="375.2" cy="133.4" r="13"/>
        <circle class="st4" cx="403.1" cy="118.8" r="13"/>
        <circle class="st4" cx="431.9" cy="105.9" r="13"/>
        <circle class="st4" cx="461.5" cy="94.8" r="13"/>
        <circle class="st4" cx="491.7" cy="85.7" r="13"/>
        <circle class="st4" cx="522.4" cy="78.4" r="13"/>
        <circle class="st4" cx="553.5" cy="73.1" r="13"/>
        <circle class="st4" cx="584.8" cy="69.8" r="13"/>
      </g>
    </g>
  </g>
  <g id="lower">
    <g>
      <g id="_Mirror_Repeat_">
        <g class="st11">
          <g>
            <path class="st4" d="M363,914.3l76.8-214.5c0-.2.2-.3.4-.4,3-.6,29.6-5.8,37.5-.4.2.1.3.4.2.6l-31.9,275.1c0,.4-.4.7-.8.5-7.7-4.8-80.4-51.2-82.3-60.5,0-.1,0-.2,0-.4h0Z"/>
            <path class="st4" d="M490.6,698.8l-33.9,276c-.1,1,.3,2,1.1,2.4l53.7,27.7c1.2.6,2.6-.3,2.7-1.8,2.5-29.9,21.6-265.8,16.1-297.3-.2-.9-.8-1.6-1.6-1.8l-35.8-7c-1.1-.2-2.1.7-2.2,1.9h0Z"/>
            <path class="st4" d="M542.3,713.6l-13,282.3h0v8c0,.1-.1.2,0,.3.6,2.3-3.9,4.3,25,9.3h.2s62.3,7,62.3,7c.3,0,.6-.2.6-.6-.5-49-1-97.9-1.6-146.9,0-.3-.2-.5-.4-.6-23.4-5.2-41.8-25.9-46-51.6-4.8-28.9,9-59.4,33.4-72.6,2.2-1.2,2.1-4.4,0-5.5l-59.6-29.7c-.3-.2-.7,0-.7.5h0Z"/>
          </g>
        </g>
      </g>
      <g id="_Mirror_Repeat_-2">
        <g class="st7">
          <g>
            <path class="st4" d="M882.5,914.3l-76.8-214.5c0-.2-.2-.3-.4-.4-3-.6-29.6-5.8-37.5-.4-.2.1-.3.4-.2.6l31.9,275.1c0,.4.4.7.8.5,7.7-4.8,80.4-51.2,82.3-60.5,0-.1,0-.2,0-.4h0Z"/>
            <path class="st4" d="M754.9,698.8l33.9,276c.1,1-.3,2-1.1,2.4l-53.7,27.7c-1.2.6-2.6-.3-2.7-1.8-2.5-29.9-21.6-265.8-16.1-297.3.2-.9.8-1.6,1.6-1.8l35.8-7c1.1-.2,2.1.7,2.2,1.9h0Z"/>
            <path class="st4" d="M703.1,713.6l13,282.3h0v8c0,.1.1.2,0,.3-.6,2.3,3.9,4.3-25,9.3h-.2s-62.3,7-62.3,7c-.3,0-.6-.2-.6-.6.5-49,1-97.9,1.6-146.9,0-.3.2-.5.4-.6,23.4-5.2,41.8-25.9,46-51.6,4.8-28.9-9-59.4-33.4-72.6-2.2-1.2-2.1-4.4,0-5.5l59.6-29.7c.3-.2.7,0,.7.5h0Z"/>
          </g>
        </g>
      </g>
    </g>
    <ellipse class="st4" cx="622.9" cy="808" rx="40.5" ry="49.5"/>
  </g>
  <g id="upper_body">
    <g>
      <g id="_Mirror_Repeat_-3">
        <g class="st10">
          <path class="st4" d="M362.1,459.3c-1.2.9-1,1.9-.5,3.1,22.8,59.8,63.7,148,78.2,207,.7,2.9.6,6.3,2.4,8.4.7.6,1.6.9,3.1,1.2,20.8,3.2,55.5,8,77.4,8.7,4.6,0,9.2-.2,13.2-2.7,5.8-3.5,9-12,9.5-19,.7-6.7.1-10.9-3-15.9-5.9-9.6-12,2.5-17.2,6.2-4.2,3.3-7.3,3.9-11.9,2.6-5.7-1.5-12-6.3-11-12.8,1.6-8.8,12.3-15.1,20.1-18.7,2.1-.9,4.1-1.6,6.2-2.2,4-1.1,5.6-1.3,6.6-3.1,4-8-4.4-13.7-11.8-15-14-2.3-27.3-.4-40.8.3-10.4.5-30.5,3.3-35.9-3.3-2.6-2.8-3.9-7.1-5.2-11-2.9-9.1-3.3-18.6.4-27.6,2.2-5.6,4-9.8,1.4-14.9-5.8-12-16.4-17.4-27.4-23.8-6.4-3.5-9.2-8.6-11.1-15.3-1.3-4.1-2.3-7.1-2.3-12.1-.1-8.6,3.8-19.3,10.5-24.9,2.5-2.4,4.4-4,4.2-5.4-.4-1.8-2.3-2.4-5.2-3.5-4.6-1.4-9.9-2.5-14.7-3.7-10.5-2.2-24.9-7.1-35.2-2.8h0s0,0,0,0Z"/>
        </g>
      </g>
      <g id="_Mirror_Repeat_-4">
        <g class="st9">
          <path class="st4" d="M884.6,459.3c1.2.9,1,1.9.5,3.1-22.8,59.8-63.7,148-78.2,207-.7,2.9-.6,6.3-2.4,8.4-.7.6-1.6.9-3.1,1.2-20.8,3.2-55.5,8-77.4,8.7-4.6,0-9.2-.2-13.2-2.7-5.8-3.5-9-12-9.5-19-.7-6.7-.1-10.9,3-15.9,5.9-9.6,12,2.5,17.2,6.2,4.2,3.3,7.3,3.9,11.9,2.6,5.7-1.5,12-6.3,11-12.8-1.6-8.8-12.3-15.1-20.2-18.7-2.1-.9-4.1-1.6-6.2-2.2-4-1.1-5.6-1.3-6.6-3.1-4-8,4.4-13.7,11.8-15,14-2.3,27.3-.4,40.8.3,10.4.5,30.5,3.3,35.9-3.3,2.6-2.8,3.9-7.1,5.2-11,2.9-9.1,3.3-18.6-.4-27.6-2.2-5.6-4-9.8-1.4-14.9,5.8-12,16.4-17.4,27.4-23.8,6.4-3.5,9.2-8.6,11.1-15.3,1.3-4.1,2.3-7.1,2.3-12.1.1-8.6-3.8-19.3-10.5-24.9-2.5-2.4-4.4-4-4.2-5.4.4-1.8,2.3-2.4,5.2-3.5,4.6-1.4,9.9-2.5,14.7-3.7,10.5-2.2,24.9-7.1,35.2-2.8h0s0,0,0,0Z"/>
        </g>
      </g>
    </g>
  </g>
  <g id="mian_shape">
    <g id="uper_body">
      <path class="st4" d="M338.9,343c1.2-1.4,7.7-8.8,18-9,8.5-.1,18.1,4.7,18,9-.1,5.3-14.6,12.3-26,8-5.3-2-8.5-5.8-10-8Z"/>
      <path class="st4" d="M330.9,343c1.2-.5,3.3,10,11,14,10.2,5.3,25.3-3.3,37-12,6.3,5.4,10.1,10.7,9,15-.6,2.1-1.9,2.5-3,5-2.9,6.9,3.7,12.5,2,16-3,6.3-32.2,6.3-47-11-9.6-11.2-10.4-26.5-9-27Z"/>
      <path class="st4" d="M459.9,322c-2,.6-3.4,4.5-2.5,17.9.2,3.4-1.4,6.5-4.2,8.5-2.3,1.6-4.9,4.1-6.3,7.6-1.5,4-1.2,8.8,1,12,5.6,8.5,24.8,8.7,31,1,10.3-12.7-12.6-48.8-19-47h0Z"/>
      <path class="st4" d="M455.5,389.1c-5.9-4-14.9-4-21.3.3-8.9,5.9-11.2,18.6-6.3,28,5.6,10.8,19.6,14.9,27.6,10.5,11.5-6.3,12.1-30.7,0-38.8Z"/>
      <path class="st4" d="M342.6,386.9c-1.4,2.8.8,7.5,5.8,11.2,1,.8,17.3,13.2,32,6.9,1.9-.8,9.2-4,12-11.6.5-1.4,2.6-7.1.2-9.2-3.9-3.6-13.3,8.6-25.3,6-7.3-1.6-9.7-7.4-17.6-6.7-1.3.1-5.6.5-7,3.3h0Z"/>
      <path class="st4" d="M347.9,411c3.3-5.4,16.7-5.5,21,0,3.7,4.7-1.8,10.6,0,23,1.6,11.4,7.8,17.4,7,18-1.9,1.4-34.5-30.4-28-41Z"/>
      <path class="st4" d="M388.9,404c-11.7,3.6-15,18.8-15,27,0,3.9,0,15.2,9,22,5.9,4.4,14,5.6,21,3,12.2-4.5,14.6-18.2,15-21,.1-1,2-15.5-9-25-1.6-1.4-10.9-9.1-21-6Z"/>
      <path class="st4" d="M432.9,531c3.8-1.3,6.4-6.7,6-11-.4-4.2-3.8-8.4-6-8-2.6.5-2.5,6.9-4,7-1.1.1-3-3.7-6-17.9-2.3-10.8,1.2-22.2,9.5-29.5,2.9-2.5,4.5-3.1,5.5-2.5,4.4,2.3-6.9,24.7,0,30,5.2,4,20.6-2,26-14,4.2-9.4,2.1-22-5-27-11.8-8.3-36,5.4-47,22-2.7,4-7.6,11.3-7,21,1,17.6,19.5,32.9,28,30h0Z"/>
      <path class="st4" d="M486.9,431c-8.5,12-12.7,23-15,31-2.6,9.1-5.5,19.4-1,23,4.5,3.6,15.2-.5,21-7,7.8-8.8,5.8-21.1,5-26-1.7-10.5-7.2-17.7-10-21Z"/>
      <path class="st4" d="M496.9,429c-5.4,3.5.5,32.2,19,42,2.3,1.2,8,4.1,15,3,10.8-1.8,16.3-11.9,18-15,3-5.5,6.7-15.9,3-19-3.5-2.9-9.6,4.1-20,5-18.9,1.6-30-19.2-35-16Z"/>
      <path class="st4" d="M506.9,473c5.3,3.6,11.8,6.4,16,7,7.5,1.1,8.5-4.5,19-6,2.1-.3,12.9-1.8,21,5,5,4.2,9.2,11.9,7,15-1.9,2.7-7.3,0-26-3-6.5-1-8.7-1.2-20-3-2.5-.4-10.7-1.8-20-6-3.9-1.8-6.5-3.4-7-6-.4-2.4,1-5.3,3-6,2.1-.7,4.4,1.2,7,3Z"/>
      <path class="st4" d="M556.9,447c-2.9,2.3-.7,15.9,8,18,4.4,1.1,10.3-.9,11-4,1.3-5.9-15.3-16.9-19-14Z"/>
      <path class="st4" d="M571.9,470c-5.3,8.2,2.5,24.6,10,25,4,.2,7.7-4.2,9-8,3.3-9.4-6-21.5-13-21-3.5.2-5.7,3.5-6,4Z"/>
      <path class="st4" d="M554.9,513c2.4-7.7,14-9.8,21-9,2.8.3,8.8,1,11,5,4,7.2-4.7,24.1-16,24-9.3,0-18.6-11.6-16-20Z"/>
      <path class="st4" d="M566.9,550c-4.1-.4-8.5,8.6-9,16-.3,4.3.7,8.8,2,9,2.2.3,3.9-11.5,9-12,2-.2,3.2,1.6,4,1,2-1.4-1.4-13.6-6-14Z"/>
      <path class="st4" d="M534.9,602c-1.8-4.8,8-13.5,11-12,2.8,1.4,2.7,13-3,15-2.9,1-7-.5-8-3Z"/>
      <path class="st4" d="M552.9,591c-2.9-1.7-1.5-11.5,1-12,2.1-.4,7,4.9,5,9-1.1,2.4-4.4,3.9-6,3Z"/>
      <path class="st4" d="M467.9,381c-8.1,2.5,4.8,46.6-8,54-9.9,5.7-30.6-13-36-7-1.2,1.3-1.1,3.2-1,4,.8,12.1,33.6,27,49,17,9.8-6.4,5.4-18.2,15-24,14.6-8.9,36.1,11.4,41,6,7-7.6-29-54.6-39-50-2.4,1.1-2.5,4.9-6,6-6,1.9-11.2-7.2-15-6Z"/>
      <path class="st4" d="M580.9,569c-6.9.8-13.4,6.7-14,13-1.1,12.1,20,24.3,29,19,5.4-3.2,5-12.1,5-13-.5-9.9-9.6-20.3-20-19Z"/>
      <path class="st4" d="M602.9,576c-.2.8-1.4,8.7,4,14,6,5.9,14.8,3.6,17,3,1.8-.5,6.2-1.7,8.7-5.5.1-.2.2-.4.3-.5,2.4-4.2,1.1-16.9-8-21-7.7-3.5-18.2.6-22,10Z"/>
      <path class="st4" d="M650.9,575c4.6-.3,10.1,1.6,13,6,4.9,7.3,0,17.9-6,23-.9.8-8.8,7.4-16,4-7.5-3.5-7-14.4-7-15,.5-8.3,7-17.4,16-18Z"/>
      <path class="st4" d="M594,620c4.4-3.2,3.9-9.7-.9-12.3-15.8-8.6-29.8-9.8-36-3.8-3.3,3.2-4.6,8.5-3,12.4,4,9.7,26.9,13,39.8,3.8,0,0,0,0,.1,0Z"/>
      <path class="st4" d="M680.9,479c4.1-.3,10.8,17.9,11,37,.1,13.6-3.2,24.8-6,32-.5-2.9-1.7-7.2-5-11-5.4-6.1-10.8-4.5-17-10-5.6-5-9.8-14.2-7-20,2.3-5,7.7-3.2,14-9,8.7-7.9,6.9-18.8,10-19Z"/>
      <path class="st4" d="M646.9,501c1.4,2.6,16,1.7,23-7,4.5-5.7,1.7-9.5,8-19,2.6-3.9,4.1-4.9,7-10,3.1-5.4,5.8-10.2,4-13-2-3.1-9.1-2.8-14-1-9.7,3.5-15.8,14.3-18,23-1.9,7.5-.2,11.1-4,18-3.2,5.8-6.7,7.6-6,9Z"/>
      <path class="st4" d="M795.9,415c-11-1.7-22.7,4.5-27,15-6.2,15.2,7.3,28.4,9,30,2,1.9,11.9,11.3,23,8,10.8-3.2,14.1-15.8,15-19,.8-3,2.8-10.7-1-19-.5-1.1-6.1-13-19-15Z"/>
      <path class="st4" d="M690.9,445c-3.7-10.4,48.9-40,49-40h0s3.8-1.8,5-1c2.4,1.6-4,13.7-2,15,1.5,1,5.5-5.7,9-5,5.2,1,2,16.3,9,31,8.6,18,27,23.5,25,28-1.2,2.8-8.9,2.7-15,1-15.9-4.5-14.3-18.5-28-24-11.2-4.5-16.7,3.1-41-1-9.7-1.6-10.7-3.2-11-4Z"/>
      <path class="st4" d="M735.9,456c-26.2-3.6-45.4,1-48,10-2.1,7.3,5.9,19.9,15,22,4.5,1,5.8-1.3,13,0,7.7,1.4,14,5,14,5,3.7,2.1,4.4,3.3,6,3,4.4-.7,6.6-10.2,7-16,.7-10.2-3.5-18.7-7-24Z"/>
      <path class="st4" d="M817.9,528c4.6,2.5,14.5-4.8,19-13,4.7-8.6,2.9-17.5,2-22-1-4.8-2.6-12.7-9-18-11.9-9.8-29.5-2.1-32-1-4.6,2-10,4.4-12,10-2.6,7.4,1.9,17.1,8,19,7.6,2.4,14-8.4,19-6,7.1,3.4-2,27.3,5,31Z"/>
      <path class="st4" d="M818.9,454c2.1-4,14.5-27.4,30-24,8.2,1.8,16.4,10.9,15,18-2.7,14.1-43.1,20.6-47,13-.3-.5-.8-1.8,2-7Z"/>
      <path class="st4" d="M870.9,451c-3.4-4.7,10.7-23.8,16-22,3.3,1.1,5.6,11.3,0,18-4.9,5.9-14,6.8-16,4Z"/>
      <path class="st4" d="M841.9,419c0,3.8-6,7.4-11,8-4.2.5-7.8-1.1-23-13-10.3-8-15.4-12.1-15-13,2-4.5,49.2,7.2,49,18Z"/>
      <path class="st4" d="M747.9,398c-.7,8.3,6.2,15.6,13,18,13.3,4.6,30.9-8.3,30-19-.7-8.2-12.2-15.7-23-15-8.4.6-19.2,6.3-20,16Z"/>
      <path class="st4" d="M835.9,353c-13.8-3.9-29.5,7.5-31,22-1.6,15.6,13.5,30.1,28,28,11-1.6,19.4-12.6,20-24,.6-11.1-6-22.9-17-26Z"/>
      <path class="st4" d="M867.9,402c-5,8-20.6,3.7-22,9-1.2,4.3,8.1,12.2,18,14,14.7,2.7,31.1-7.8,31-16,0-6.7-11.2-8.2-13-19-1-6.2,2.1-8.7,0-13-3.3-6.7-15.5-9.7-19-6-5.1,5.4,11,21.4,5,31Z"/>
      <path class="st4" d="M891.9,377c-5.1,4.4-5.5,13.8-1,17,3.8,2.7,10.7.5,14-4,2.8-3.8,3.9-10.5,0-14-3.7-3.2-9.7-1.9-13,1Z"/>
      <path class="st4" d="M872.9,356c-1.8,3.7,3.1,10.6,9,13,10.6,4.4,22.9-6.5,22-11-1.2-6-27.8-8.8-31-2Z"/>
      <path class="st4" d="M793.3,242.1c-1.6,21.8-5.2,39.9-8.7,53.4-2.5,9.9-6,23.2-13.3,39.8-5.9,13.5-12.3,24.4-17.5,32.3,8.1,0,12.8,2.3,15.6,4.7,3.2,2.7,3.9,5.2,8.2,7.9,2,1.3,6.6,4.1,10.7,3.1,7-1.7,12-14.2,9.6-24.1-2.3-9.1-9.4-10.1-9.3-17.1.1-5.2,4.7-9.4,13.9-17.6,3.3-3,8-6.8,14.2-10.6,7.7-4.7,9.8-4.6,12.8-6.7,10.2-7.2,14.2-28.6,5.7-44.6-7.7-14.5-24.5-22.8-42.1-20.5h0Z"/>
      <path class="st4" d="M845.9,260c2.5-.8,3.8,4.2,12,11,14,11.5,22.2,6.8,33,17,8.6,8.1,5.4,12.9,15,20,8.5,6.3,17.1,7,17,10-.1,2.8-7.6,4.5-10,5-15.6,3.6-30-.8-38-4-9.9-4-17-6.8-23-14-14-16.6-11.5-43.3-6-45Z"/>
      <path class="st4" d="M848.9,331c1.1-1.5,8-11.1,5-15-4.1-5.4-27.5-.9-30,11-1.2,5.8,2.5,13.4,8,15,7.6,2.2,15-8.2,17-11Z"/>
      <path class="st4" d="M808.9,329c-4.1,1.2-7.7,9.9-4,16,4.5,7.6,16.8,5.9,19,2,2.9-5.1-8.7-19.8-15-18Z"/>
      <path class="st4" d="M868.9,325c-3.9-1.7-13.9,4.4-14,14,0,8.6,8,15.2,12,14,6.4-1.9,7.9-25.4,2-28Z"/>
      <path class="st4" d="M908.9,340c-.3,5.4-22,12.5-28,5-2.7-3.4-2.2-9.9,1-13,7.1-7,27.3,2.7,27,8Z"/>
      <path class="st4" d="M676.6,595.9c-7.1-.8-10.8-14.8-12.1-19.4-1.7-6.3-3.9-14.6,0-18.4,5.7-5.5,24.2-1.5,28.6,10.3,4.7,12.5-8.5,28.4-16.5,27.5h0Z"/>
      <path class="st4" d="M527.9,633c-7.1,1.2-10.7,9.9-9,12,2.5,3.1,19.3-3.5,19-8-.2-2.5-5.5-4.8-10-4Z"/>
      <path class="st4" d="M542.9,613c-3.3,1.2-1,17.9,5,31,1.7,3.7,4.8,10.5,7,10,2.8-.6,3.7-13.1,0-24-2.9-8.7-9.3-18-12-17Z"/>
      <path class="st4" d="M694.9,631c-1.7-.5-6.9,9-8,19-.8,7.1.4,15.9,2,16,3.1.2,9-34.1,6-35Z"/>
      <path class="st4" d="M702.9,643c-3.4-1.9-.9-6.6-5-15-1.9-3.8-3.7-5.6-3-8,.6-2,2.8-3.9,5-4,4.1-.2,4.9,6,12,12,2.7,2.3,6.5,4.2,14,8,7.3,3.7,10.1,4.5,10,6-.1,2.1-5.8,4.4-11,4-5.5-.4-6.3-3.6-12-4-5.7-.4-7.3,2.5-10,1Z"/>
    </g>
    <path class="st4" d="M412.9,343c-9.1-.3-17.1,8-20,16-.5,1.5-4,11.4,1,19,4.8,7.3,13.2,6,15,12,1.8,6.2-5.7,12-4,14,1.7,2,10.8-2.4,18-8,6.9-5.4,17.7-13.8,17-25-.4-6.8-4.9-11.5-10-17-5.4-5.8-10.1-10.8-17-11Z"/>
    <path class="st4" d="M334.9,292c-3.6-13.2,30.5-38,42-31,2.2,1.3,3.8,7.9,7,21,4.2,17.2,3.7,20.1,2,22-1.1,1.2-3.9,3.5-18,1-16.6-2.9-30.9-5.4-33-13Z"/>
    <path class="st4" d="M327.9,333c6.5,4.8,17.2,1,23-3,2.7-1.9,7.5-5.2,8-10,1-10.2-17.5-24.2-28-19-9.6,4.8-11.9,25.4-3,32Z"/>
    <path class="st4" d="M384.9,260c-6.9,5.1,10.2,35.9,13,41,3.7,6.7,6.5,10.4,9,10,5.7-.8,5.8-20.7,10-21,4.4-.3,8.1,21.4,12,21,3.5-.3,2.3-18.4,8-20,6.4-1.8,15.3,19.1,19,18,3.1-.9,2.6-17.1-11-79-27.5,7-34.9,15.3-36,22-1.1,6.5,3.6,12.6,1,15-4.4,4.1-19.6-11-25-7Z"/>
    <path class="st4" d="M415.9,311c-4.2,1.1-6.8,12.7-2,19,1.5,2,4.8,4.9,8,4,3.5-1,4.9-5.9,5-9,.2-7.5-7-15.1-11-14Z"/>
    <path class="st4" d="M439.9,301c-7.3,1.5-7.9,20.3-8,22-.1,3.9-.7,18.7,6,21,4.8,1.7,11.1-3.9,14-8,5.4-7.7,3.4-16.4,3-18-2-8.7-9.4-18.1-15-17Z"/>
    <path class="st4" d="M379.9,311c9.2-1.3,14.3-2,19,1,7.2,4.5,11.4,16.2,7,22-4.8,6.4-17.6,2.7-20,2-12.2-3.5-23.1-14.5-21-20,1.2-3.1,6.3-3.8,15-5Z"/>
    <path class="st4" d="M508.1,522.7c25.6-56.5-59.2-48.1-23.1,2.3-36.2-50.4-71.3,27.2-9.5,21.1-61.7,6.1-12,75.4,13.5,18.8-25.6,56.5,59.2,48.1,23.1-2.3,36.2,50.4,71.3-27.2,9.5-21.1,61.7-6.1,12-75.4-13.5-18.8ZM496.9,549.9c-17.2,14.2-25.4,1.1-5-8-14.2-17.2-1.1-25.4,8-5,17.2-14.2,25.4-1.1,5,8,14.2,17.2,1.1,25.4-8,5Z"/>
    <path class="st4" d="M634.3,650.1c36.2-62.7-57.5-62.7-21.3,0-36.2-62.7-83,18.4-10.6,18.4-72.4,0-25.6,81.1,10.6,18.4-36.2,62.7,57.5,62.7,21.3,0,36.2,62.7,83-18.4,10.6-18.4,72.4,0,25.6-81.1-10.6-18.4ZM624.4,674.8c-10.3,14.5-18.7,6.1-4.3-4.2-14.5-10.3-6.1-18.8,4.3-4.2,10.3-14.5,18.8-6.1,4.2,4.2,14.5,10.3,6.1,18.8-4.2,4.2Z"/>
    <path class="st4" d="M744,519.9c-20.8-65.7-82.1,1.3-14.8,16.2-67.3-14.9-39.9,71.8,6.6,20.9-46.5,50.9,42.2,70.5,21.4,4.7,20.8,65.7,82.1-1.3,14.8-16.2,67.3,14.9,39.9-71.8-6.6-20.9,46.5-50.9-42.2-70.5-21.4-4.7ZM757.8,541c11.1,20.2-3.5,25.4-7.9,2.8-20.2,11.1-25.4-3.5-2.8-7.9-11.1-20.2,3.5-25.4,7.9-2.8,20.2-11.1,25.4,3.5,2.8,7.9Z"/>
    <path class="st4" d="M681.9,621c-6.2.3-14.9-2-16.5-7.2-1.7-5.5,4.9-13.5,12.2-16.2,9.7-3.5,18.1,3.2,21.1-.5,3.2-3.8-4.9-12.7-1.8-16.2,2.6-3,12.9-1.3,15.7,4.1,5,9.8-11.9,35-30.6,35.9h0Z"/>
  </g>
  <g id="neck">
    <g id="hands_design">
      <path class="st4" d="M616.5,128.1c-32.2.2-70.6,7.2-70.7,14.7,0,7.5,37.5,14.9,67.4,16.4,39.4,1.9,84.5-5.8,84.7-14.1.2-8.2-43.4-17.3-81.4-17h0Z"/>
      <g>
        <g id="_Mirror_Repeat_-5">
          <g class="st3">
            <g>
              <path class="st4" d="M521.9,163c-5.9,1.6-8.9,9-7,14,2.6,7,14.7,8.9,19,4,2.7-3.1,2-8.5,0-12-2.2-3.7-7-7.3-12-6Z"/>
              <path class="st4" d="M521.9,184c-10.3.1-17.1,6-17,11,0,4.2,4.9,7.8,9,9,4.8,1.4,12.5.6,15-5,2.2-5-.5-12.1-7-15Z"/>
              <path class="st4" d="M513.9,205c-5.6.9-8.7,5.5-9,6-4.4,6.8-.3,14.5,0,15,2.4,4.4,7.8,8.8,14,8,7.3-.9,12.8-8.5,12-16-.9-8.6-9.7-14.1-17-13Z"/>
              <path class="st4" d="M519.9,235c-7.7,1.3-12.6,9.9-10,17,2,5.4,8,8.9,14,8,6.1-.9,10.8-6.2,11-12,.2-7.6-7.2-14.3-15-13Z"/>
              <path class="st4" d="M523.9,261c-5,2.7-9.2,8.7-8,15,1.1,5.5,5.8,8.4,7,9,5.7,3.1,11.9,1.2,14.5-.2,0,0,0,0,0,0,3.4-1.8,5.6-4.8,6.4-6.7,2.1-5.1.9-12-4-16-5.1-4.1-11.8-3.3-16-1h0Z"/>
              <path class="st4" d="M536.9,286c-.6.5-3.7,2.9-4,7-.4,4.4,2.5,8.2,6,10,.3.2,5.1,2.5,10,0,3.8-2,6.8-6.4,6-11-.7-4.3-4.2-6.5-5-7-4.1-2.5-9.5-1.8-13,1Z"/>
              <path class="st4" d="M554.9,298c-3.2,4.1-2.4,9.3-2,12,.3,1.9,1.8,11.3,10,15,6.4,2.9,15.5,1.6,19-4,0,0,.2-.3.4-.6,3.1-5.9-.7-13.1-2.4-16.4-2.4-4.6-3.8-7.2-7-9-5.5-3-13.9-2.2-18,3Z"/>
              <path class="st4" d="M593.9,313c-5,.7-10.9,4.2-12,10-.9,5,2.3,9.1,3,10,.7.9,3.4,4,8,5,4.3.9,9.7-.1,13-4,2.7-3.1,2.9-6.8,3-8,0-1.2.2-4.8-2-8-3-4.4-8.8-5.6-13-5Z"/>
            </g>
          </g>
        </g>
        <g id="_Mirror_Repeat_-6">
          <g class="st8">
            <g>
              <path class="st4" d="M722.2,162.6c5.9,1.5,8.9,9,7,14-2.6,7-14.7,8.9-19,4.1-2.7-3.1-2.1-8.5,0-12,2.2-3.8,7-7.3,12-6.1h0Z"/>
              <path class="st4" d="M722.2,183.6c10.3.1,17.1,5.9,17,10.9,0,4.2-4.9,7.8-9,9-4.8,1.4-12.5.7-15-4.9-2.2-5,.4-12.1,6.9-15h0Z"/>
              <path class="st4" d="M730.3,204.6c5.6.9,8.7,5.5,9,6,4.4,6.8.3,14.5,0,15-2.4,4.4-7.7,8.8-14,8.1-7.3-.9-12.8-8.4-12.1-15.9.9-8.6,9.7-14.2,17-13.1h0Z"/>
              <path class="st4" d="M724.4,234.6c7.7,1.3,12.6,9.9,10.1,17-2,5.4-7.9,9-14,8-6.1-.9-10.8-6.1-11-12-.3-7.6,7.2-14.3,15-13.1h0Z"/>
              <path class="st4" d="M720.5,260.6c5,2.7,9.3,8.7,8.1,15-1.1,5.5-5.8,8.4-7,9-5.7,3.1-11.9,1.2-14.5-.2,0,0,0,0,0,0-3.4-1.8-5.6-4.8-6.4-6.7-2.2-5.1-1-12,3.9-16,5.1-4.2,11.7-3.3,16-1.1h0Z"/>
              <path class="st4" d="M707.6,285.7c.6.5,3.7,2.9,4,7,.4,4.4-2.5,8.2-6,10-.3.2-5.1,2.5-10,0-3.8-2-6.8-6.4-6-11,.7-4.3,4.2-6.6,5-7,4.1-2.5,9.5-1.9,13,1h0Z"/>
              <path class="st4" d="M689.7,297.7c3.2,4.1,2.5,9.3,2,12-.3,1.9-1.7,11.3-9.9,15-6.4,2.9-15.5,1.7-19-3.9,0,0-.2-.3-.4-.6-3.1-5.9.6-13.1,2.3-16.4,2.4-4.6,3.7-7.2,7-9,5.5-3.1,13.9-2.3,18,2.9h0Z"/>
              <path class="st4" d="M650.7,312.9c5,.6,10.9,4.1,12,10,1,5-2.3,9.1-3,10-.7.9-3.4,4-8,5-4.3.9-9.7,0-13-4-2.7-3.1-3-6.7-3-8,0-1.2-.3-4.8,2-8,3-4.4,8.7-5.6,13-5h0Z"/>
            </g>
          </g>
        </g>
      </g>
      <path class="st4" d="M607.3,333c2.3-4.9,7.7-9.9,14.4-10.3,8.9-.5,16,7.5,18.4,14.4,4.7,13.7-6.6,31.1-16,31.3-10.7.2-23.3-21.7-16.8-35.3h0Z"/>
    </g>
    <g>
      <g id="_Mirror_Repeat_-7">
        <g class="st0">
          <path class="st4" d="M452.9,232c0-1.2.3-4.9,3-8,.5-.6,4.8-5.6,10-4,4.6,1.4,5.9,6.7,6,7-.2,7.7,0,17.6,1,29,1.8,18.4,5.2,31.9,6,35,1,4,5.6,21,16,42,4.4,8.8,12,24.1,26,41,7.7,9.4,14.7,16,21,22,8,7.6,15.2,14.5,26,22,9.5,6.6,11.6,6.7,18,12,8.9,7.4,14.6,15.4,18,21,.7,1.1,1.9,3.2,3,6,2.6,6.6,2.9,12.3,3,15,.3,7.5,1.3,39.7,2,84-.3,1.2-.8,2.7-2,4-6,6.9-25.7,5.8-32-6-3.8-7.1-2.5-17.5,3-22,5-4.1,10.5-.8,15-5,2.7-2.5,3.1-6,3-17-.2-18.3-.3-27.4-3-35-3.5-9.6-8.4-16-10-18-7.4-9.1-15.6-13.6-18-15-10.1-5.8-27.6-19.6-60-54-6.8-8.5-13.6-18.2-20-29-28-47.6-34.2-95.2-35-127Z"/>
        </g>
      </g>
      <g id="_Mirror_Repeat_-8">
        <g class="st1">
          <path class="st4" d="M789,232c0-1.2-.3-4.9-3-8-.5-.6-4.8-5.6-10-4-4.6,1.4-5.9,6.7-6,7,.2,7.7,0,17.6-1,29-1.8,18.4-5.2,31.9-6,35-1,4-5.6,21-16,42-4.4,8.8-12,24.1-26,41-7.7,9.4-14.7,16-21,22-8,7.6-15.2,14.5-26,22-9.5,6.6-11.6,6.7-18,12-8.9,7.4-14.6,15.4-18,21-.7,1.1-1.9,3.2-3,6-2.6,6.6-2.9,12.3-3,15-.3,7.5-1.3,39.7-2,84,.3,1.2.8,2.7,2,4,6,6.9,25.7,5.8,32-6,3.8-7.1,2.5-17.5-3-22-5-4.1-10.5-.8-15-5-2.7-2.5-3.1-6-3-17,.2-18.3.3-27.4,3-35,3.5-9.6,8.4-16,10-18,7.4-9.1,15.6-13.6,18-15,10.1-5.8,27.6-19.6,60-54,6.8-8.5,13.6-18.2,20-29,28-47.6,34.2-95.2,35-127Z"/>
        </g>
      </g>
    </g>
  </g>
</svg>